# xmcd CD database file
#
# Track frame offsets:
#	150
#	18035
#	34237
#	56047
#	70042
#	84645
#	107047
#	121650
#	137070
#	152155
#	167990
#	184362
#	202840
#	221287
#	240647
#	256657
#	272370
#	285702
#	301560
#	314740
#	330092
#
# Disc length: 4556 seconds
#
# Revision: 2
# Processed by: cddbd v1.5.2PL0 Copyright (c) Steve Scherf et al.
# Submitted via: CDex 1.70beta2
#
DISCID=1811ca15
DTITLE=Various Artist - Totally 90's Country
DYEAR=1999
DGENRE=Country
TTITLE0=Suzy Bogguss - Someday Soon
TTITLE1=Lacy J Dalton - Black Coffee
TTITLE2=Steve Wariner - Holes in the Floor of Heaven
TTITLE3=Larry Gatlin - Boogie and Beethoven
TTITLE4=Deana Carter - Turn those Wheels around
TTITLE5=Chris Ledoux - Tougher Than the Rest
TTITLE6=The Highwaymen - The Devils Right Hand
TTITLE7=John Berry - A Mind Of Her Own
TTITLE8=Billy Dean - Somewhere in my Broken Heart
TTITLE9=Dan Seals - Goodtimes
TTITLE10=Eddie Rabbitt - On Second Thought
TTITLE11=Pearl River - Fool to Fool
TTITLE12=Shenandoah - Somewhere in the Vacinity of the Heart
TTITLE13=Gail Davis - Jagged edge of a Broken Heart
TTITLE14=Charlie Daniels - All Night long
TTITLE15=Tanya Tucker - Soon
TTITLE16=Emilo - Even if I Tried
TTITLE17=GeorgeDucas - Hello Cruel World
TTITLE18=The Ranch - Walkin' The Country
TTITLE19=Dean Miller - Nowhere U.S.A
TTITLE20=Wild Rose - There Goes my Love
EXTD=The Essential 9's Country Album YEAR: 1999
EXTT0=
EXTT1=
EXTT2=
EXTT3=
EXTT4=
EXTT5=
EXTT6=The Highwaymen are:-) \nJohnny Cash/Willie Nelson/Merle Haggard/Kris Kristofferson
EXTT7=
EXTT8=
EXTT9=
EXTT10=
EXTT11=
EXTT12=With Alison Krauss
EXTT13=
EXTT14=
EXTT15=
EXTT16=
EXTT17=
EXTT18=
EXTT19=
EXTT20=
PLAYORDER=
